<?xml version="1.0" standalone="no"?>
<!DOCTYPE svg PUBLIC "-//W3C//DTD SVG 20010904//EN"
 "http://www.w3.org/TR/2001/REC-SVG-20010904/DTD/svg10.dtd">
<svg version="1.0" xmlns="http://www.w3.org/2000/svg"
 width="126.000000pt" height="126.000000pt" viewBox="0 0 126.000000 126.000000"
 preserveAspectRatio="xMidYMid meet">
<metadata>
Created by potrace 1.11, written by Peter Selinger 2001-2013
</metadata>
<g transform="translate(0.000000,126.000000) scale(0.100000,-0.100000)"
fill="#000000" stroke="none">
<path d="M672 1188 c-20 -20 -14 -46 14 -65 26 -16 26 -17 5 -25 -12 -4 -21
-16 -21 -29 0 -20 -2 -19 -37 8 -55 43 -61 45 -82 34 -27 -15 -33 -58 -9 -64
10 -3 18 -9 17 -14 -1 -4 0 -46 2 -93 1 -50 4 -68 6 -43 2 23 11 47 19 53 18
16 18 31 -1 24 -11 -5 -15 1 -15 25 0 17 3 31 6 31 4 0 51 -32 105 -70 95 -68
116 -94 85 -106 -19 -7 -29 -36 -16 -44 7 -4 2 -13 -14 -23 -15 -10 -27 -13
-31 -7 -11 18 -53 10 -72 -14 -10 -13 -29 -26 -41 -30 -18 -6 -22 -15 -23 -54
-1 -26 -1 -55 0 -64 3 -23 -8 -23 -25 0 -13 16 -15 16 -29 -3 -13 -17 -19 -18
-45 -8 -28 10 -29 10 -19 -8 14 -27 36 -34 55 -19 11 10 18 10 26 2 9 -9 7
-12 -10 -12 -15 0 -22 -6 -22 -20 0 -10 -6 -25 -14 -32 -12 -11 -10 -17 12
-40 l26 -28 -262 0 -262 0 0 -39 c0 -44 10 -51 75 -51 24 0 57 -8 75 -17 30
-17 32 -17 44 0 16 21 66 26 144 16 34 -5 61 -4 66 2 6 5 22 9 36 9 37 0 37
-43 0 -50 -19 -4 -25 -12 -25 -30 0 -25 1 -25 104 -30 90 -4 102 -7 88 -19
-25 -20 -21 -73 6 -99 25 -24 57 -28 87 -12 14 8 21 6 28 -6 6 -11 11 -13 16
-5 4 6 17 11 29 11 12 0 27 4 34 8 17 11 5 52 -15 52 -12 0 -13 3 -4 12 9 9
18 8 38 -3 21 -11 28 -11 31 -1 10 27 20 0 13 -32 -14 -62 15 -167 41 -150 5
3 9 1 9 -5 0 -5 14 4 30 21 17 16 30 35 30 42 0 20 51 71 58 59 4 -6 18 -14
31 -18 18 -6 22 -4 15 6 -5 8 -14 29 -20 46 -13 38 2 45 16 9 12 -34 40 -47
65 -33 11 6 33 12 49 13 16 1 32 8 37 15 7 11 9 11 9 1 0 -7 5 -10 10 -7 7 4
10 56 9 136 -1 128 -1 130 -23 123 -20 -6 -20 -6 3 19 20 22 23 33 18 73 -5
45 -18 64 -45 64 -7 0 -16 -10 -21 -22 -6 -16 -10 -18 -16 -8 -5 9 -4 15 3 18
7 2 12 10 12 17 0 7 8 12 17 11 10 0 19 7 21 16 3 13 -3 18 -22 18 -14 0 -28
-4 -31 -10 -10 -16 -23 -12 -36 11 -11 21 -10 21 37 15 27 -4 57 -9 67 -12 15
-5 17 2 17 50 0 44 -4 57 -19 65 -10 6 -21 24 -23 41 -4 29 5 40 17 20 13 -21
25 -9 25 25 0 21 -5 35 -12 35 -10 0 -9 3 1 9 10 6 10 10 1 16 -6 4 -9 13 -6
21 7 19 -9 18 -29 -2 -19 -19 -67 -11 -59 10 3 7 -2 16 -11 20 -9 3 -18 0 -21
-9 -4 -8 -14 -15 -23 -15 -9 0 -104 63 -211 140 -107 77 -197 140 -200 140 -3
0 -11 -5 -18 -12z m248 -419 c0 -21 -16 -26 -23 -6 -6 17 3 38 14 31 5 -3 9
-14 9 -25z m220 -29 c0 -22 -35 -54 -49 -45 -13 8 -7 51 10 71 14 17 39 1 39
-26z m-500 -75 c0 -3 -8 -15 -19 -26 -18 -20 -18 -20 -14 6 3 14 12 25 19 25
8 0 14 -2 14 -5z m20 -65 c0 -5 -6 -10 -14 -10 -8 0 -18 5 -21 10 -3 6 3 10
14 10 12 0 21 -4 21 -10z m38 -31 c-6 -4 -8 -13 -5 -21 3 -8 1 -21 -4 -29 -8
-12 -10 -12 -19 1 -13 19 -13 33 0 25 6 -3 10 -1 10 4 0 6 -5 11 -12 11 -6 0
-3 9 7 20 14 15 20 17 26 8 4 -7 3 -16 -3 -19z m26 -54 c-4 -8 -8 -15 -10 -15
-2 0 -4 7 -4 15 0 8 4 15 10 15 5 0 7 -7 4 -15z m-150 -45 c6 0 5 5 -2 12 -7
7 -12 16 -12 20 0 15 17 8 43 -18 24 -23 26 -24 36 -7 9 16 10 16 11 -4 0 -21
-5 -23 -51 -23 -29 0 -48 4 -44 9 3 6 -4 15 -15 21 -11 6 -20 15 -20 21 0 5
10 1 22 -11 12 -11 26 -20 32 -20z m588 -207 c-3 -16 -7 -22 -10 -15 -4 13 4
42 11 42 2 0 2 -12 -1 -27z m-248 -28 c21 -16 49 -65 36 -65 -4 0 -10 6 -13
13 -2 7 -10 1 -17 -15 -7 -15 -17 -25 -21 -22 -5 3 -7 -5 -5 -18 3 -13 5 -27
5 -31 1 -5 7 -7 14 -4 6 2 12 17 12 33 0 22 5 29 20 29 24 0 45 -24 38 -42 -3
-7 -11 -13 -19 -13 -7 0 -11 -6 -8 -13 6 -17 -31 -51 -49 -44 -19 7 -31 86
-18 119 5 15 6 30 0 39 -11 17 -12 49 -1 49 4 0 15 -7 26 -15z m-144 -10 c0
-17 -2 -18 -25 -9 -13 5 -14 8 -3 15 19 13 28 11 28 -6z m-23 -60 c0 -8 -4
-15 -9 -15 -10 0 -11 14 -1 23 9 10 10 9 10 -8z"/>
<path d="M1034 1096 c-9 -24 4 -48 23 -44 12 2 18 12 18 28 0 29 -32 41 -41
16z"/>
<path d="M367 653 c-4 -3 1 -12 11 -20 15 -13 14 -14 -11 -8 -22 4 -27 3 -23
-7 3 -7 9 -21 12 -30 3 -9 11 -19 18 -21 6 -2 3 -3 -7 -1 -12 2 -17 -3 -15
-14 4 -21 58 -29 69 -10 7 10 12 11 29 1 25 -16 30 -16 30 0 0 7 -13 26 -30
42 -16 16 -30 34 -30 42 0 7 -9 17 -19 23 -23 12 -26 12 -34 3z"/>
<path d="M435 530 c3 -5 8 -10 11 -10 2 0 4 5 4 10 0 6 -5 10 -11 10 -5 0 -7
-4 -4 -10z"/>
<path d="M358 253 c7 -3 16 -2 19 1 4 3 -2 6 -13 5 -11 0 -14 -3 -6 -6z"/>
<path d="M1222 138 c-14 -14 -16 -28 -3 -28 9 0 24 30 18 36 -2 2 -9 -2 -15
-8z"/>
<path d="M1010 91 c0 -7 6 -11 14 -9 8 2 22 -6 31 -17 9 -11 14 -14 10 -7 -3
6 -1 12 6 12 21 0 -3 18 -33 25 -19 5 -28 3 -28 -4z"/>
<path d="M28 3 c12 -2 30 -2 40 0 9 3 -1 5 -23 4 -22 0 -30 -2 -17 -4z"/>
<path d="M98 3 c6 -2 18 -2 25 0 6 3 1 5 -13 5 -14 0 -19 -2 -12 -5z"/>
</g>
</svg>
